<mxfile host="app.diagrams.net" modified="2021-11-09T03:51:58.390Z" agent="5.0 (Windows NT 10.0; Win64; x64) AppleWebKit/537.36 (KHTML, like Gecko) Chrome/95.0.4638.69 Safari/537.36" etag="5wnzWeeM0cidGgQzHsdB" version="15.7.0" type="github">
  <diagram id="IdLpJAudawnrsnd8H30q" name="Page-1">
    <mxGraphModel dx="2352" dy="756" grid="1" gridSize="10" guides="1" tooltips="1" connect="1" arrows="1" fold="1" page="1" pageScale="1" pageWidth="850" pageHeight="1100" math="0" shadow="0">
      <root>
        <mxCell id="0" />
        <mxCell id="1" parent="0" />
        <mxCell id="vC0Zb87hb_vzl7_0k-Lu-1" value="Customer" style="shape=umlActor;verticalLabelPosition=bottom;verticalAlign=top;html=1;outlineConnect=0;" parent="1" vertex="1">
          <mxGeometry x="-60" y="90" width="30" height="60" as="geometry" />
        </mxCell>
        <mxCell id="vC0Zb87hb_vzl7_0k-Lu-2" value="" style="rounded=0;whiteSpace=wrap;html=1;" parent="1" vertex="1">
          <mxGeometry x="-50" y="310" width="10" height="300" as="geometry" />
        </mxCell>
        <mxCell id="vC0Zb87hb_vzl7_0k-Lu-4" value="" style="endArrow=none;dashed=1;html=1;dashPattern=1 3;strokeWidth=2;rounded=0;exitX=0.5;exitY=0;exitDx=0;exitDy=0;entryX=0.5;entryY=1;entryDx=0;entryDy=0;" parent="1" source="vC0Zb87hb_vzl7_0k-Lu-2" target="IduTFgPTTAa0c05N7g4z-4" edge="1">
          <mxGeometry width="50" height="50" relative="1" as="geometry">
            <mxPoint x="20" y="340" as="sourcePoint" />
            <mxPoint x="-55" y="160" as="targetPoint" />
          </mxGeometry>
        </mxCell>
        <mxCell id="vC0Zb87hb_vzl7_0k-Lu-5" value="" style="endArrow=none;dashed=1;html=1;dashPattern=1 3;strokeWidth=2;rounded=0;exitX=0.5;exitY=1;exitDx=0;exitDy=0;" parent="1" source="vC0Zb87hb_vzl7_0k-Lu-2" edge="1">
          <mxGeometry width="50" height="50" relative="1" as="geometry">
            <mxPoint x="-35" y="320" as="sourcePoint" />
            <mxPoint x="-45" y="671.6000366210938" as="targetPoint" />
          </mxGeometry>
        </mxCell>
        <mxCell id="vC0Zb87hb_vzl7_0k-Lu-6" value="Authentication Page" style="shape=umlBoundary;whiteSpace=wrap;html=1;" parent="1" vertex="1">
          <mxGeometry x="150" y="90" width="90" height="80" as="geometry" />
        </mxCell>
        <mxCell id="vC0Zb87hb_vzl7_0k-Lu-7" value="" style="rounded=0;whiteSpace=wrap;html=1;" parent="1" vertex="1">
          <mxGeometry x="200" y="300" width="10" height="50" as="geometry" />
        </mxCell>
        <mxCell id="vC0Zb87hb_vzl7_0k-Lu-8" value="" style="endArrow=none;dashed=1;html=1;dashPattern=1 3;strokeWidth=2;rounded=0;exitX=0.5;exitY=0;exitDx=0;exitDy=0;entryX=0.602;entryY=1.01;entryDx=0;entryDy=0;entryPerimeter=0;" parent="1" source="vC0Zb87hb_vzl7_0k-Lu-7" target="vC0Zb87hb_vzl7_0k-Lu-6" edge="1">
          <mxGeometry width="50" height="50" relative="1" as="geometry">
            <mxPoint x="270" y="340" as="sourcePoint" />
            <mxPoint x="195" y="140" as="targetPoint" />
          </mxGeometry>
        </mxCell>
        <mxCell id="vC0Zb87hb_vzl7_0k-Lu-10" value="Google Login / their own username+password" style="html=1;verticalAlign=bottom;endArrow=block;rounded=0;exitX=0.5;exitY=0;exitDx=0;exitDy=0;entryX=0;entryY=0.25;entryDx=0;entryDy=0;" parent="1" source="vC0Zb87hb_vzl7_0k-Lu-2" target="vC0Zb87hb_vzl7_0k-Lu-7" edge="1">
          <mxGeometry width="80" relative="1" as="geometry">
            <mxPoint x="110" y="420" as="sourcePoint" />
            <mxPoint x="190" y="420" as="targetPoint" />
          </mxGeometry>
        </mxCell>
        <mxCell id="vC0Zb87hb_vzl7_0k-Lu-12" value="Today/Upcoming/&lt;br&gt;Report Pages" style="shape=umlBoundary;whiteSpace=wrap;html=1;" parent="1" vertex="1">
          <mxGeometry x="330" y="90" width="120" height="90" as="geometry" />
        </mxCell>
        <mxCell id="vC0Zb87hb_vzl7_0k-Lu-13" value="" style="rounded=0;whiteSpace=wrap;html=1;" parent="1" vertex="1">
          <mxGeometry x="400" y="380" width="10" height="450" as="geometry" />
        </mxCell>
        <mxCell id="vC0Zb87hb_vzl7_0k-Lu-14" value="" style="endArrow=none;dashed=1;html=1;dashPattern=1 3;strokeWidth=2;rounded=0;exitX=0.5;exitY=0;exitDx=0;exitDy=0;entryX=0.613;entryY=1.004;entryDx=0;entryDy=0;entryPerimeter=0;" parent="1" source="vC0Zb87hb_vzl7_0k-Lu-13" target="vC0Zb87hb_vzl7_0k-Lu-12" edge="1">
          <mxGeometry width="50" height="50" relative="1" as="geometry">
            <mxPoint x="470" y="338.8" as="sourcePoint" />
            <mxPoint x="394" y="180" as="targetPoint" />
          </mxGeometry>
        </mxCell>
        <mxCell id="vC0Zb87hb_vzl7_0k-Lu-15" value="" style="endArrow=none;dashed=1;html=1;dashPattern=1 3;strokeWidth=2;rounded=0;exitX=0.5;exitY=1;exitDx=0;exitDy=0;" parent="1" source="vC0Zb87hb_vzl7_0k-Lu-13" edge="1">
          <mxGeometry width="50" height="50" relative="1" as="geometry">
            <mxPoint x="415" y="318.8" as="sourcePoint" />
            <mxPoint x="405" y="900" as="targetPoint" />
          </mxGeometry>
        </mxCell>
        <mxCell id="vC0Zb87hb_vzl7_0k-Lu-16" value="MongoDB database" style="shape=umlBoundary;whiteSpace=wrap;html=1;" parent="1" vertex="1">
          <mxGeometry x="640" y="90" width="120" height="90" as="geometry" />
        </mxCell>
        <mxCell id="vC0Zb87hb_vzl7_0k-Lu-17" value="" style="rounded=0;whiteSpace=wrap;html=1;" parent="1" vertex="1">
          <mxGeometry x="710" y="290" width="10" height="120" as="geometry" />
        </mxCell>
        <mxCell id="vC0Zb87hb_vzl7_0k-Lu-18" value="" style="endArrow=none;dashed=1;html=1;dashPattern=1 3;strokeWidth=2;rounded=0;exitX=0.5;exitY=0;exitDx=0;exitDy=0;entryX=0.613;entryY=1.013;entryDx=0;entryDy=0;entryPerimeter=0;" parent="1" source="vC0Zb87hb_vzl7_0k-Lu-17" target="vC0Zb87hb_vzl7_0k-Lu-16" edge="1">
          <mxGeometry width="50" height="50" relative="1" as="geometry">
            <mxPoint x="780" y="348.44" as="sourcePoint" />
            <mxPoint x="703.56" y="180" as="targetPoint" />
          </mxGeometry>
        </mxCell>
        <mxCell id="vC0Zb87hb_vzl7_0k-Lu-19" value="" style="endArrow=none;dashed=1;html=1;dashPattern=1 3;strokeWidth=2;rounded=0;exitX=0.5;exitY=1;exitDx=0;exitDy=0;entryX=0.5;entryY=0;entryDx=0;entryDy=0;" parent="1" source="vC0Zb87hb_vzl7_0k-Lu-17" target="vC0Zb87hb_vzl7_0k-Lu-20" edge="1">
          <mxGeometry width="50" height="50" relative="1" as="geometry">
            <mxPoint x="725" y="328.44" as="sourcePoint" />
            <mxPoint x="715" y="530" as="targetPoint" />
          </mxGeometry>
        </mxCell>
        <mxCell id="vC0Zb87hb_vzl7_0k-Lu-20" value="" style="rounded=0;whiteSpace=wrap;html=1;" parent="1" vertex="1">
          <mxGeometry x="710" y="420" width="10" height="327.6" as="geometry" />
        </mxCell>
        <mxCell id="vC0Zb87hb_vzl7_0k-Lu-21" value="" style="endArrow=none;dashed=1;html=1;dashPattern=1 3;strokeWidth=2;rounded=0;entryX=0.5;entryY=1;entryDx=0;entryDy=0;" parent="1" target="vC0Zb87hb_vzl7_0k-Lu-20" edge="1">
          <mxGeometry width="50" height="50" relative="1" as="geometry">
            <mxPoint x="715" y="781.5999755859375" as="sourcePoint" />
            <mxPoint x="723.56" y="271.16999999999996" as="targetPoint" />
          </mxGeometry>
        </mxCell>
        <mxCell id="vC0Zb87hb_vzl7_0k-Lu-24" value="Direct User to Today Page" style="html=1;verticalAlign=bottom;endArrow=open;dashed=1;endSize=8;rounded=0;entryX=0.92;entryY=0.089;entryDx=0;entryDy=0;entryPerimeter=0;" parent="1" target="vC0Zb87hb_vzl7_0k-Lu-2" edge="1">
          <mxGeometry relative="1" as="geometry">
            <mxPoint x="190" y="337" as="sourcePoint" />
            <mxPoint x="160" y="390" as="targetPoint" />
          </mxGeometry>
        </mxCell>
        <mxCell id="vC0Zb87hb_vzl7_0k-Lu-25" value="Get JWT Tokan" style="html=1;verticalAlign=bottom;endArrow=block;rounded=0;exitX=1;exitY=0.25;exitDx=0;exitDy=0;entryX=0.28;entryY=0.175;entryDx=0;entryDy=0;entryPerimeter=0;" parent="1" source="vC0Zb87hb_vzl7_0k-Lu-7" edge="1" target="vC0Zb87hb_vzl7_0k-Lu-17">
          <mxGeometry width="80" relative="1" as="geometry">
            <mxPoint x="270" y="390" as="sourcePoint" />
            <mxPoint x="640" y="310" as="targetPoint" />
          </mxGeometry>
        </mxCell>
        <mxCell id="vC0Zb87hb_vzl7_0k-Lu-27" value="login successfully and respond with token" style="html=1;verticalAlign=bottom;endArrow=open;dashed=1;endSize=8;rounded=0;entryX=1;entryY=0.75;entryDx=0;entryDy=0;exitX=-0.16;exitY=0.368;exitDx=0;exitDy=0;exitPerimeter=0;" parent="1" source="vC0Zb87hb_vzl7_0k-Lu-17" target="vC0Zb87hb_vzl7_0k-Lu-7" edge="1">
          <mxGeometry relative="1" as="geometry">
            <mxPoint x="645" y="355" as="sourcePoint" />
            <mxPoint x="420" y="399" as="targetPoint" />
          </mxGeometry>
        </mxCell>
        <mxCell id="vC0Zb87hb_vzl7_0k-Lu-29" value="" style="endArrow=none;dashed=1;html=1;dashPattern=1 3;strokeWidth=2;rounded=0;exitX=0.5;exitY=1;exitDx=0;exitDy=0;" parent="1" source="vC0Zb87hb_vzl7_0k-Lu-7" edge="1">
          <mxGeometry width="50" height="50" relative="1" as="geometry">
            <mxPoint x="205" y="400" as="sourcePoint" />
            <mxPoint x="205" y="720" as="targetPoint" />
          </mxGeometry>
        </mxCell>
        <mxCell id="vC0Zb87hb_vzl7_0k-Lu-30" value="verify Auth info from Bearer Token" style="html=1;verticalAlign=bottom;endArrow=block;rounded=0;exitX=0.94;exitY=0.074;exitDx=0;exitDy=0;exitPerimeter=0;entryX=1;entryY=0.75;entryDx=0;entryDy=0;" parent="1" edge="1" target="vC0Zb87hb_vzl7_0k-Lu-17">
          <mxGeometry x="0.1438" y="20" width="80" relative="1" as="geometry">
            <mxPoint x="719.4000000000001" y="306.9312" as="sourcePoint" />
            <mxPoint x="720.1999999999998" y="356.58079999999995" as="targetPoint" />
            <Array as="points">
              <mxPoint x="800" y="307" />
              <mxPoint x="800" y="380" />
            </Array>
            <mxPoint as="offset" />
          </mxGeometry>
        </mxCell>
        <mxCell id="vC0Zb87hb_vzl7_0k-Lu-32" value="query Tasks($_userID)" style="html=1;verticalAlign=bottom;endArrow=block;rounded=0;entryX=-0.2;entryY=0.065;entryDx=0;entryDy=0;entryPerimeter=0;" parent="1" target="vC0Zb87hb_vzl7_0k-Lu-20" edge="1">
          <mxGeometry width="80" relative="1" as="geometry">
            <mxPoint x="405" y="441" as="sourcePoint" />
            <mxPoint x="640" y="437" as="targetPoint" />
          </mxGeometry>
        </mxCell>
        <mxCell id="vC0Zb87hb_vzl7_0k-Lu-33" value="query Task($_userID, $_taskID)" style="html=1;verticalAlign=bottom;endArrow=block;rounded=0;entryX=0;entryY=0.25;entryDx=0;entryDy=0;" parent="1" target="vC0Zb87hb_vzl7_0k-Lu-20" edge="1">
          <mxGeometry width="80" relative="1" as="geometry">
            <mxPoint x="405" y="502" as="sourcePoint" />
            <mxPoint x="650" y="455.2252" as="targetPoint" />
          </mxGeometry>
        </mxCell>
        <mxCell id="vC0Zb87hb_vzl7_0k-Lu-37" value="return Tasks" style="html=1;verticalAlign=bottom;endArrow=open;dashed=1;endSize=8;rounded=0;exitX=0;exitY=0.1;exitDx=0;exitDy=0;exitPerimeter=0;" parent="1" source="vC0Zb87hb_vzl7_0k-Lu-20" edge="1">
          <mxGeometry x="0.0436" y="17" relative="1" as="geometry">
            <mxPoint x="690" y="330" as="sourcePoint" />
            <mxPoint x="410" y="453" as="targetPoint" />
            <mxPoint as="offset" />
          </mxGeometry>
        </mxCell>
        <mxCell id="vC0Zb87hb_vzl7_0k-Lu-38" value="return Task" style="html=1;verticalAlign=bottom;endArrow=open;dashed=1;endSize=8;rounded=0;exitX=-0.2;exitY=0.292;exitDx=0;exitDy=0;exitPerimeter=0;entryX=0.88;entryY=0.302;entryDx=0;entryDy=0;entryPerimeter=0;" parent="1" source="vC0Zb87hb_vzl7_0k-Lu-20" target="vC0Zb87hb_vzl7_0k-Lu-13" edge="1">
          <mxGeometry x="0.0359" y="20" relative="1" as="geometry">
            <mxPoint x="649" y="482.7436" as="sourcePoint" />
            <mxPoint x="420" y="477.20000000000005" as="targetPoint" />
            <mxPoint as="offset" />
          </mxGeometry>
        </mxCell>
        <mxCell id="vC0Zb87hb_vzl7_0k-Lu-39" value="mutation AddTask($_userID, $task: input)" style="html=1;verticalAlign=bottom;endArrow=block;rounded=0;exitX=0.96;exitY=0.46;exitDx=0;exitDy=0;entryX=0;entryY=0.5;entryDx=0;entryDy=0;exitPerimeter=0;" parent="1" source="vC0Zb87hb_vzl7_0k-Lu-13" target="vC0Zb87hb_vzl7_0k-Lu-20" edge="1">
          <mxGeometry x="-0.0488" y="-1" width="80" relative="1" as="geometry">
            <mxPoint x="420" y="524.4000000000001" as="sourcePoint" />
            <mxPoint x="650.5999999999999" y="525.0039999999999" as="targetPoint" />
            <mxPoint as="offset" />
          </mxGeometry>
        </mxCell>
        <mxCell id="IduTFgPTTAa0c05N7g4z-1" value="" style="html=1;points=[];perimeter=orthogonalPerimeter;" parent="1" vertex="1">
          <mxGeometry x="710" y="210" width="10" height="70" as="geometry" />
        </mxCell>
        <mxCell id="IduTFgPTTAa0c05N7g4z-2" value="query Tasks()" style="html=1;verticalAlign=bottom;endArrow=block;entryX=0;entryY=0;rounded=0;exitX=1;exitY=0;exitDx=0;exitDy=0;" parent="1" source="IduTFgPTTAa0c05N7g4z-4" target="IduTFgPTTAa0c05N7g4z-1" edge="1">
          <mxGeometry relative="1" as="geometry">
            <mxPoint x="570" y="210" as="sourcePoint" />
          </mxGeometry>
        </mxCell>
        <mxCell id="IduTFgPTTAa0c05N7g4z-3" value="return MockTasks" style="html=1;verticalAlign=bottom;endArrow=open;dashed=1;endSize=8;exitX=0;exitY=0.95;rounded=0;entryX=1;entryY=1;entryDx=0;entryDy=0;" parent="1" source="IduTFgPTTAa0c05N7g4z-1" target="IduTFgPTTAa0c05N7g4z-4" edge="1">
          <mxGeometry x="-0.0295" y="-8" relative="1" as="geometry">
            <mxPoint x="570" y="286" as="targetPoint" />
            <mxPoint as="offset" />
          </mxGeometry>
        </mxCell>
        <mxCell id="IduTFgPTTAa0c05N7g4z-4" value="" style="rounded=0;whiteSpace=wrap;html=1;" parent="1" vertex="1">
          <mxGeometry x="-50" y="210" width="10" height="70" as="geometry" />
        </mxCell>
        <mxCell id="IduTFgPTTAa0c05N7g4z-7" value="" style="endArrow=none;dashed=1;html=1;dashPattern=1 3;strokeWidth=2;rounded=0;exitX=0.5;exitY=0;exitDx=0;exitDy=0;" parent="1" source="IduTFgPTTAa0c05N7g4z-4" target="vC0Zb87hb_vzl7_0k-Lu-1" edge="1">
          <mxGeometry width="50" height="50" relative="1" as="geometry">
            <mxPoint x="215" y="320" as="sourcePoint" />
            <mxPoint x="214.17999999999984" y="180.79999999999995" as="targetPoint" />
          </mxGeometry>
        </mxCell>
        <mxCell id="cdwOa66nHp0Xo2Hlqz_p-1" value="query&amp;nbsp; User()" style="html=1;verticalAlign=bottom;endArrow=block;rounded=0;exitX=1;exitY=0.163;exitDx=0;exitDy=0;exitPerimeter=0;" edge="1" parent="1" source="vC0Zb87hb_vzl7_0k-Lu-2">
          <mxGeometry width="80" relative="1" as="geometry">
            <mxPoint x="205" y="361" as="sourcePoint" />
            <mxPoint x="710" y="360" as="targetPoint" />
          </mxGeometry>
        </mxCell>
        <mxCell id="cdwOa66nHp0Xo2Hlqz_p-2" value="return userID" style="html=1;verticalAlign=bottom;endArrow=open;dashed=1;endSize=8;rounded=0;entryX=1;entryY=0;entryDx=0;entryDy=0;exitX=0;exitY=0.75;exitDx=0;exitDy=0;" edge="1" parent="1" source="vC0Zb87hb_vzl7_0k-Lu-17" target="vC0Zb87hb_vzl7_0k-Lu-13">
          <mxGeometry relative="1" as="geometry">
            <mxPoint x="648.5999999999999" y="372" as="sourcePoint" />
            <mxPoint x="220" y="372.5" as="targetPoint" />
          </mxGeometry>
        </mxCell>
        <mxCell id="cdwOa66nHp0Xo2Hlqz_p-3" value="return Task" style="html=1;verticalAlign=bottom;endArrow=open;dashed=1;endSize=8;rounded=0;exitX=-0.44;exitY=0.544;exitDx=0;exitDy=0;exitPerimeter=0;entryX=1;entryY=0.5;entryDx=0;entryDy=0;" edge="1" parent="1" source="vC0Zb87hb_vzl7_0k-Lu-20" target="vC0Zb87hb_vzl7_0k-Lu-13">
          <mxGeometry x="0.0359" y="20" relative="1" as="geometry">
            <mxPoint x="638.4000000000001" y="601.1432" as="sourcePoint" />
            <mxPoint x="410" y="599.9951328191946" as="targetPoint" />
            <mxPoint as="offset" />
          </mxGeometry>
        </mxCell>
        <mxCell id="cdwOa66nHp0Xo2Hlqz_p-4" value="mutation UpdateTask($_userID, $_taskID, $task: input)" style="html=1;verticalAlign=bottom;endArrow=block;rounded=0;exitX=1.12;exitY=0.636;exitDx=0;exitDy=0;entryX=0;entryY=0.75;entryDx=0;entryDy=0;exitPerimeter=0;" edge="1" parent="1" source="vC0Zb87hb_vzl7_0k-Lu-13" target="vC0Zb87hb_vzl7_0k-Lu-20">
          <mxGeometry x="-0.0488" y="-1" width="80" relative="1" as="geometry">
            <mxPoint x="421.1999999999998" y="591.2936" as="sourcePoint" />
            <mxPoint x="650" y="593.8" as="targetPoint" />
            <mxPoint as="offset" />
          </mxGeometry>
        </mxCell>
        <mxCell id="cdwOa66nHp0Xo2Hlqz_p-5" value="return Task" style="html=1;verticalAlign=bottom;endArrow=open;dashed=1;endSize=8;rounded=0;exitX=-0.04;exitY=0.774;exitDx=0;exitDy=0;exitPerimeter=0;entryX=0.8;entryY=0.657;entryDx=0;entryDy=0;entryPerimeter=0;" edge="1" parent="1" source="vC0Zb87hb_vzl7_0k-Lu-20" target="vC0Zb87hb_vzl7_0k-Lu-13">
          <mxGeometry x="0.0359" y="20" relative="1" as="geometry">
            <mxPoint x="719.1999999999998" y="613.1284" as="sourcePoint" />
            <mxPoint x="421.1999999999998" y="608.96" as="targetPoint" />
            <mxPoint as="offset" />
          </mxGeometry>
        </mxCell>
        <mxCell id="cdwOa66nHp0Xo2Hlqz_p-6" value="mutation DeleteTask($_userID, $_taskID)" style="html=1;verticalAlign=bottom;endArrow=block;rounded=0;" edge="1" parent="1">
          <mxGeometry x="-0.0488" y="-1" width="80" relative="1" as="geometry">
            <mxPoint x="410" y="731" as="sourcePoint" />
            <mxPoint x="710" y="731" as="targetPoint" />
            <mxPoint as="offset" />
          </mxGeometry>
        </mxCell>
        <mxCell id="cdwOa66nHp0Xo2Hlqz_p-7" value="return (success)" style="html=1;verticalAlign=bottom;endArrow=open;dashed=1;endSize=8;rounded=0;exitX=-0.04;exitY=0.774;exitDx=0;exitDy=0;exitPerimeter=0;" edge="1" parent="1">
          <mxGeometry x="0.0359" y="20" relative="1" as="geometry">
            <mxPoint x="709.1999999999999" y="746.6024" as="sourcePoint" />
            <mxPoint x="412" y="747" as="targetPoint" />
            <mxPoint as="offset" />
          </mxGeometry>
        </mxCell>
        <mxCell id="cdwOa66nHp0Xo2Hlqz_p-8" value="Update dara" style="html=1;verticalAlign=bottom;endArrow=block;rounded=0;entryX=0.92;entryY=0.571;entryDx=0;entryDy=0;entryPerimeter=0;" edge="1" parent="1" target="vC0Zb87hb_vzl7_0k-Lu-20">
          <mxGeometry x="0.0134" y="10" width="80" relative="1" as="geometry">
            <mxPoint x="719" y="530" as="sourcePoint" />
            <mxPoint x="760.6" y="603.0699999999999" as="targetPoint" />
            <Array as="points">
              <mxPoint x="800" y="530" />
              <mxPoint x="800" y="607" />
            </Array>
            <mxPoint as="offset" />
          </mxGeometry>
        </mxCell>
      </root>
    </mxGraphModel>
  </diagram>
</mxfile>
